<?xml version="1.0" standalone="no"?>
<!DOCTYPE svg PUBLIC "-//W3C//DTD SVG 20010904//EN"
 "http://www.w3.org/TR/2001/REC-SVG-20010904/DTD/svg10.dtd">
<svg version="1.0" xmlns="http://www.w3.org/2000/svg"
 width="10.000000pt" height="21.000000pt" viewBox="0 0 10.000000 21.000000"
 preserveAspectRatio="xMidYMid meet">

<g transform="translate(0.000000,21.000000) scale(0.100000,-0.100000)"
fill="#000000" stroke="none">
<path d="M36 194 c-9 -8 -16 -24 -16 -35 0 -10 -4 -19 -10 -19 -5 0 -10 -7
-10 -15 0 -8 5 -15 10 -15 6 0 10 -22 10 -50 0 -43 3 -50 20 -50 17 0 20 7 20
50 0 38 4 50 15 50 8 0 15 7 15 15 0 8 -7 15 -15 15 -8 0 -15 9 -15 20 0 11 7
20 15 20 8 0 15 7 15 15 0 20 -34 19 -54 -1z"/>
</g>
</svg>
