<?xml version="1.0" standalone="no"?>
<!DOCTYPE svg PUBLIC "-//W3C//DTD SVG 20010904//EN"
 "http://www.w3.org/TR/2001/REC-SVG-20010904/DTD/svg10.dtd">
<svg version="1.0" xmlns="http://www.w3.org/2000/svg"
 width="24.000000pt" height="24.000000pt" viewBox="0 0 24.000000 24.000000"
 preserveAspectRatio="xMidYMid meet">

<g transform="translate(0.000000,24.000000) scale(0.100000,-0.100000)"
fill="#000000" stroke="none">
<path d="M61 216 c-73 -40 -64 -159 15 -192 82 -34 166 33 150 120 -13 70
-100 108 -165 72z m105 -10 c19 -15 19 -15 -1 -30 -11 -8 -23 -16 -26 -16 -7
0 -39 45 -39 55 0 11 47 4 66 -9z m-56 -47 c0 -5 -4 -9 -9 -9 -5 0 -23 -3 -40
-6 -38 -8 -43 14 -9 48 l21 21 19 -23 c10 -12 18 -26 18 -31z m97 1 c8 -29 1
-35 -32 -31 -41 4 -44 9 -15 31 32 25 41 25 47 0z m-77 -30 c0 -5 -4 -10 -10
-10 -5 0 -25 -14 -45 -31 l-35 -31 -10 27 c-17 45 -20 43 83 53 9 1 17 -2 17
-8z m69 -19 c12 -8 13 -14 3 -35 -15 -34 -28 -33 -40 3 -14 39 3 53 37 32z
m-55 -21 c3 -11 9 -29 12 -40 5 -18 1 -20 -33 -20 -21 0 -45 5 -53 10 -13 9
-10 15 18 40 38 35 49 37 56 10z"/>
</g>
</svg>
